<?xml version="1.0" encoding="utf-8"?>
<!-- Generator: Adobe Illustrator 19.0.0, SVG Export Plug-In . SVG Version: 6.00 Build 0)  -->
<svg version="1.1" id="Capa_1" xmlns="http://www.w3.org/2000/svg" xmlns:xlink="http://www.w3.org/1999/xlink" x="0px" y="0px"
	 viewBox="0 0 16 16" style="enable-background:new 0 0 16 16;" xml:space="preserve">
<style type="text/css">
	.st0{fill:#FCFCFC;}
</style>
<path id="XMLID_643_" class="st0" d="M15.5,12.2c-0.5-0.7-2-1.2-3.6-1.8C10.3,9.7,10,9.5,10,9.5V8c0,0,0.6-0.4,0.8-1.9
	c0.4,0.1,0.7-0.5,0.8-0.9c0-0.3,0-1.2-0.5-1.2c0.1-0.7,0.2-1.3,0.1-1.6C11,1.3,9.8,0,8,0S5,1.3,4.9,2.5c0,0.3,0,1,0.1,1.6
	C4.6,4,4.5,4.9,4.5,5.3c0,0.3,0.4,1,0.8,0.9C5.5,7.6,6.1,8,6.1,8v1.5c0,0-0.4,0.2-1.9,0.9C2.6,11,1,11.5,0.5,12.2
	C0.1,12.9,0.2,16,0.2,16H8h7.8C15.8,16,15.9,12.9,15.5,12.2z"/>
</svg>
