<?xml version="1.0" encoding="utf-8"?>
<!-- Generator: Adobe Illustrator 19.0.0, SVG Export Plug-In . SVG Version: 6.00 Build 0)  -->
<svg version="1.1" id="Capa_1" xmlns="http://www.w3.org/2000/svg" xmlns:xlink="http://www.w3.org/1999/xlink" x="0px" y="0px"
	 viewBox="0 0 16 16" style="enable-background:new 0 0 16 16;" xml:space="preserve">
<style type="text/css">
	.st0{fill:#446A83;}
</style>
<g id="XMLID_678_">
	<path id="XMLID_679_" class="st0" d="M3.3,15.3c-0.6,0-1.2-0.3-1.8-0.9l-0.1-0.1c-0.6-0.6-2.3-3,0-5.4c1.2-1.2,2.8-2.8,4.5-4.5
		c0.9-0.9,1.9-1.8,2.8-2.8c1.7-1.7,3-1.3,4.9,0.5c2.3,2.2,2.7,4.3,1.7,5.5C14,9.2,9,14.2,8.8,14.4c-0.3,0.3-0.7,0.3-1,0
		c-0.3-0.3-0.3-0.7,0-1c0.1-0.1,5.1-5.1,6.4-6.6c0.3-0.3,0.3-1.6-1.6-3.5c-1.1-1.1-1.5-2-2.9-0.6C8.7,3.7,7.8,4.6,6.9,5.5
		C5.2,7.2,3.6,8.8,2.4,10c-1.3,1.4-0.7,2.8,0,3.4l0.1,0.1c0.5,0.5,1,0.7,1.7-0.1c0.2-0.2,0.7-0.6,1.2-1.2c1.5-1.5,4.4-4.3,5-5
		c0.2-0.2,0.5-0.8,0.2-1c-0.4-0.3-1,0.3-1.2,0.5c-2,2.1-4.6,4.6-4.7,4.7c-0.3,0.3-0.7,0.3-1,0c-0.3-0.3-0.3-0.7,0-1
		c0,0,2.6-2.5,4.6-4.6c1.3-1.4,2.5-1.2,3.2-0.6c0.8,0.7,0.6,2.2,0,3c-0.6,0.7-2.8,2.9-5.1,5.1c-0.5,0.5-1,1-1.2,1.2
		C4.6,15,3.9,15.3,3.3,15.3L3.3,15.3z"/>
</g>
</svg>
