<?xml version="1.0" encoding="utf-8"?>
<!-- Generator: Adobe Illustrator 19.0.0, SVG Export Plug-In . SVG Version: 6.00 Build 0)  -->
<svg version="1.1" id="Capa_1" xmlns="http://www.w3.org/2000/svg" xmlns:xlink="http://www.w3.org/1999/xlink" x="0px" y="0px"
	 viewBox="0 0 16 16" style="enable-background:new 0 0 16 16;" xml:space="preserve">
<style type="text/css">
	.st0{fill:#FFFFFF;}
</style>
<g id="XMLID_1298_">
	<g id="XMLID_1316_">
		<path id="XMLID_1245_" class="st0" d="M15.8,10.9c-0.3-0.5-0.3-0.7-1.3-1.2c-1-0.4-1.2-0.5-1.2-0.5l0-0.9c0,0,0.4-0.3,0.5-1.2
			c0.2,0.1,0.5-0.3,0.5-0.6c0-0.2,0-0.8-0.3-0.7C14,5.3,14,4.9,14,4.7c-0.1-0.8-0.8-1.6-2-1.6S10.1,4,10,4.7c0,0.2,0,0.6,0.1,1
			C9.8,5.7,9.8,6.3,9.8,6.5c0,0.2,0.3,0.6,0.5,0.6c0.1,0.9,0.5,1.2,0.5,1.2L10,8.9c0.5,0.3,1.7,0.1,1.9,0.5c0.1,0.2,0.5,0.8,0.4,4.5
			h3.7C15.9,13.8,16,11.3,15.8,10.9z"/>
	</g>
	<g id="XMLID_1314_">
		<path id="XMLID_1067_" class="st0" d="M10.7,10.5C10.4,10,9.3,9.7,8.2,9.2C7.1,8.8,6.8,8.6,6.8,8.6l0-1c0,0,0.4-0.3,0.5-1.3
			c0.3,0.1,0.5-0.4,0.5-0.6c0-0.2,0-0.9-0.3-0.8c0.1-0.5,0.1-0.9,0.1-1.1C7.6,2.9,6.7,2,5.5,2C4.2,2,3.3,2.9,3.3,3.7
			c0,0.2,0,0.7,0.1,1.1C3,4.8,3,5.4,3,5.7c0,0.2,0.3,0.7,0.5,0.6c0.1,1,0.5,1.3,0.5,1.3l0,1c0,0-0.3,0.2-1.4,0.6
			C1.6,9.7,0.5,10,0.2,10.5C-0.1,11,0,13.8,0,13.8h5.5h5.5C10.9,13.8,11,11,10.7,10.5z"/>
	</g>
</g>
</svg>
