<?xml version="1.0" encoding="utf-8"?>
<!-- Generator: Adobe Illustrator 19.0.0, SVG Export Plug-In . SVG Version: 6.00 Build 0)  -->
<svg version="1.1" id="Capa_1" xmlns="http://www.w3.org/2000/svg" xmlns:xlink="http://www.w3.org/1999/xlink" x="0px" y="0px"
	 viewBox="-24.5 -10 65 36" style="enable-background:new -24.5 -10 65 36;" xml:space="preserve">
<style type="text/css">
	.st0{fill:#EAEFF0;}
	.st1{fill-rule:evenodd;clip-rule:evenodd;fill:#EAEFF0;}
</style>
<g id="XMLID_686_">
	<g id="XMLID_1224_">
		<path id="XMLID_1225_" class="st0" d="M-5.4,19.9v-7.8c0-0.3,0.1-0.5,0.3-0.6c0.2-0.2,0.4-0.3,0.6-0.3h0.9v7.1h4.1v1.6H-5.4z"/>
	</g>
	<g id="XMLID_1221_">
		<path id="XMLID_1222_" class="st0" d="M1.3,19.9v-7.8c0-0.3,0.1-0.5,0.3-0.6c0.2-0.2,0.4-0.3,0.6-0.3h5.2v1.5H3v1.9h3.3v0.6
			c0,0.3-0.1,0.5-0.3,0.6c-0.2,0.2-0.4,0.3-0.6,0.3H3v2.2h4.4v1.6H1.3z"/>
	</g>
	<g id="XMLID_1218_">
		<path id="XMLID_1219_" class="st0" d="M14.2,18.7c-0.3,0.4-0.6,0.7-1,0.9c-0.4,0.2-0.9,0.3-1.4,0.3c-1.2,0-2.2-0.4-2.9-1.2
			c-0.7-0.8-1.1-1.9-1.1-3.2c0-1.3,0.3-2.4,1-3.2c0.7-0.8,1.7-1.2,2.9-1.2c1,0,1.9,0.3,2.6,0.8c0.7,0.5,1.1,1.2,1.2,2.1h-1.2
			c-0.3,0-0.6-0.2-0.8-0.5c-0.1-0.2-0.3-0.4-0.5-0.5c-0.3-0.2-0.8-0.3-1.3-0.3c-0.7,0-1.3,0.3-1.7,0.8c-0.4,0.5-0.6,1.3-0.6,2.1
			c0,0.9,0.2,1.6,0.6,2.1c0.4,0.5,1,0.8,1.7,0.8c0.6,0,1-0.2,1.4-0.5c0.4-0.3,0.6-0.8,0.7-1.3h-1c-0.2,0-0.5-0.1-0.6-0.3
			c-0.2-0.2-0.3-0.4-0.3-0.6v-0.6h3.5v4.6h-0.5c-0.5,0-0.7-0.2-0.9-0.7L14.2,18.7z"/>
	</g>
	<g id="XMLID_1214_">
		<path id="XMLID_1215_" class="st0" d="M19.9,11.2h1.4l3,8.8h-1.8l-0.6-1.8h-3.3l-0.5,1.8h-1.8l2.8-8.2
			C19.2,11.4,19.5,11.2,19.9,11.2z M20.3,12.9l-1.2,3.7h2.3L20.3,12.9z"/>
	</g>
	<g id="XMLID_1211_">
		<path id="XMLID_1212_" class="st0" d="M32,16.8c-0.1,1-0.4,1.7-1.1,2.3c-0.7,0.5-1.5,0.8-2.6,0.8c-1.3,0-2.2-0.4-2.9-1.1
			c-0.7-0.7-1-1.8-1-3.2c0-1.5,0.3-2.6,1-3.3c0.7-0.8,1.7-1.1,3-1.1c1.1,0,1.9,0.3,2.6,0.8c0.6,0.5,0.9,1.3,1,2.2h-1
			c-0.4,0-0.7-0.2-0.8-0.5c-0.1-0.2-0.3-0.4-0.4-0.6c-0.3-0.2-0.8-0.4-1.3-0.4c-0.7,0-1.3,0.2-1.7,0.7c-0.4,0.5-0.6,1.2-0.6,2.1
			c0,0.9,0.2,1.6,0.6,2.1c0.4,0.5,0.9,0.8,1.7,0.8c0.5,0,1-0.1,1.3-0.4c0.3-0.2,0.5-0.6,0.7-1.2H32z"/>
	</g>
	<g id="XMLID_1208_">
		<path id="XMLID_1209_" class="st0" d="M36.8,19.9h-1.7v-3.1l-3-5.3h2.1l1.8,3.6l1.4-3.1c0.2-0.3,0.4-0.5,0.8-0.5h1.4l-2.8,5.3
			V19.9z"/>
	</g>
	<g id="XMLID_1083_">
		<g id="XMLID_1205_">
			<g id="XMLID_1206_">
				<path id="XMLID_1207_" class="st1" d="M-0.4,2.1c0-0.1,0-0.1,0-0.2c0.1-1.6,0.7-3,1.7-4.2c0.3-0.4,0.7-0.7,1-0.9
					c0,0,0.1,0,0.1-0.1c0.6-0.6,1.6-0.3,1.8,0.5c0.1,0.4-0.1,0.9-0.4,1.1C3.6-1.5,3.4-1.3,3.2-1.1C2.5-0.4,2,0.4,1.8,1.4
					C1.8,1.7,1.7,2.1,1.8,2.5c0.1,1.2,0.6,2.3,1.5,3.2c0.6,0.6,1.3,1,2.2,1.2C5.7,6.9,6,7,6.3,7c0.7,0,1.3-0.1,2-0.4
					C9.6,6,10.7,4.8,11,3.3c0.1-0.4,0.1-0.9,0.1-1.4c-0.1-1.4-0.8-2.7-2-3.5C9-1.6,8.8-1.8,8.7-1.9C8.3-2.5,8.7-3.4,9.4-3.5
					c0.4-0.1,0.7,0,0.9,0.3c0,0,0,0,0.1,0.1c1.3,1,2.1,2.2,2.6,3.7c0.1,0.4,0.2,0.8,0.2,1.2c0,0.1,0,0.1,0,0.2c0,0,0,0,0,0
					c0,0.2,0,0.5,0,0.7c0,0,0,0,0,0.1c0,0,0,0.1,0,0.1c0,0.3-0.1,0.6-0.1,0.8c-0.3,1.2-0.8,2.3-1.7,3.2c-0.8,0.9-1.8,1.5-3,1.9
					C7.9,9,7.4,9,6.9,9.1c-0.1,0-0.1,0-0.2,0c-0.2,0-0.3,0-0.5,0c0,0,0,0,0,0c-0.1,0-0.3,0-0.4,0C5.3,9,4.9,8.9,4.5,8.8
					c-2-0.6-3.6-2.1-4.4-4c-0.3-0.7-0.4-1.4-0.5-2.2c0-0.1,0-0.1,0-0.2C-0.4,2.3-0.4,2.2-0.4,2.1z"/>
			</g>
		</g>
		<g id="XMLID_1201_">
			<path id="XMLID_1202_" class="st0" d="M-16.6,12.4c-0.8-0.8-1.8-1.2-3-1.2c-1.2,0-2.2,0.4-3,1.2c-0.7,0.8-1.1,1.9-1.1,3.2
				c0,1.3,0.4,2.4,1.1,3.2c0.7,0.8,1.7,1.2,3,1.2c1.2,0,2.2-0.4,3-1.2c0.7-0.8,1.1-1.9,1.1-3.2C-15.5,14.3-15.9,13.2-16.6,12.4z
				 M-18.4,17.3c-0.3,0.4-0.7,0.5-1.3,0.5c-0.6,0-1-0.2-1.3-0.5c-0.3-0.4-0.5-0.9-0.5-1.7c0-0.8,0.2-1.3,0.5-1.7
				c0.3-0.4,0.7-0.5,1.3-0.5c0.5,0,1,0.2,1.3,0.5c0.3,0.4,0.5,1,0.5,1.7C-17.9,16.3-18,16.9-18.4,17.3z"/>
		</g>
		<g id="XMLID_1199_">
			<path id="XMLID_1200_" class="st0" d="M-9.3,11.3v4.3l-2.5-4.3H-13l0,0c-0.3,0-0.6,0.1-0.8,0.4c-0.2,0.2-0.4,0.5-0.4,0.9v7.4h2.4
				v-4.3l2.6,4.3h2.3v-8.6H-9.3z"/>
		</g>
		<g id="XMLID_1176_">
			<path id="XMLID_1197_" class="st0" d="M1.4,24.6v-2.2c0-0.1,0-0.1,0.1-0.2c0,0,0.1-0.1,0.2-0.1h0.3l1,1.7v-1.7h0.5v2.4H2.9
				l-1-1.7v1.7H1.4z"/>
			<path id="XMLID_1195_" class="st0" d="M6.8,24.6v-2.2c0-0.1,0-0.1,0.1-0.2c0,0,0.1-0.1,0.2-0.1h1.5v0.4H7.3v0.5h1v0.2
				c0,0.1,0,0.1-0.1,0.2c-0.1,0-0.1,0.1-0.2,0.1H7.3v0.6h1.3v0.5H6.8z"/>
			<path id="XMLID_1193_" class="st0" d="M12.6,24.6v-2h-0.7v-0.2c0-0.1,0-0.1,0.1-0.2c0.1,0,0.1-0.1,0.2-0.1h1.7v0.4h-0.7v2H12.6z"
				/>
			<path id="XMLID_1191_" class="st0" d="M17.9,24.6l-0.7-2.4h0.5l0.4,1.7l0.4-1.7h0.5l0.3,1.7l0.4-1.5c0-0.1,0.1-0.2,0.2-0.2h0.3
				l-0.7,2.4h-0.5l-0.4-1.9l-0.4,1.9H17.9z"/>
			<path id="XMLID_1188_" class="st0" d="M23.7,23.4c0-0.4,0.1-0.7,0.3-0.9c0.2-0.2,0.5-0.3,0.9-0.3c0.4,0,0.6,0.1,0.9,0.3
				c0.2,0.2,0.3,0.6,0.3,0.9c0,0.4-0.1,0.7-0.3,0.9c-0.2,0.2-0.5,0.3-0.9,0.3c-0.4,0-0.7-0.1-0.9-0.3C23.8,24.1,23.7,23.8,23.7,23.4
				z M24.2,23.4c0,0.3,0.1,0.5,0.2,0.6c0.1,0.1,0.3,0.2,0.5,0.2c0.2,0,0.4-0.1,0.5-0.2c0.1-0.2,0.2-0.4,0.2-0.6
				c0-0.3-0.1-0.5-0.2-0.6c-0.1-0.1-0.3-0.2-0.5-0.2c-0.2,0-0.4,0.1-0.5,0.2C24.3,22.9,24.2,23.1,24.2,23.4z"/>
			<path id="XMLID_1185_" class="st0" d="M29.5,24.6v-2.2c0-0.1,0-0.1,0.1-0.2c0,0,0.1-0.1,0.2-0.1h0.9c0.3,0,0.5,0.1,0.6,0.2
				c0.1,0.1,0.2,0.3,0.2,0.5c0,0.2,0,0.3-0.1,0.4c-0.1,0.1-0.1,0.2-0.3,0.2c0.1,0,0.2,0.1,0.2,0.2c0,0.1,0.1,0.2,0.1,0.4l0,0.3
				c0,0,0,0.1,0,0.1c0,0,0,0.1,0,0.1c0,0.1,0,0.1,0.1,0.2H31c0,0,0-0.1,0-0.1c0-0.1,0-0.1,0-0.2l0-0.3c0-0.1,0-0.2-0.1-0.3
				c-0.1-0.1-0.1-0.1-0.3-0.1H30v1H29.5z M30,23.2h0.6c0.1,0,0.2,0,0.3-0.1c0.1-0.1,0.1-0.1,0.1-0.2s0-0.2-0.1-0.2
				c-0.1-0.1-0.1-0.1-0.3-0.1H30V23.2z"/>
			<path id="XMLID_1179_" class="st0" d="M34.9,24.6v-2.2c0-0.1,0-0.1,0.1-0.2c0.1,0,0.1-0.1,0.2-0.1h0.2v1l1-1H37l-1,1l1.1,1.5
				h-0.6l-0.6-0.9c-0.1-0.1-0.2-0.2-0.3-0.2c-0.1,0-0.1,0.1-0.1,0.2v0.9H34.9z"/>
		</g>
		<path id="XMLID_1089_" class="st1" d="M6.9-6.4C6.9-6.4,6.9-6.4,6.9-6.4c0-0.2,0-0.5,0-0.7c0-0.3-0.1-1.1-0.1-1.4
			c0.3-0.1,0.5-0.4,0.5-0.8c0-0.5-0.4-0.8-0.9-0.8S5.5-9.7,5.5-9.2c0,0.3,0.2,0.6,0.5,0.8c0,0.3-0.1,1.1-0.1,1.4c0,0.2,0,0.5,0,0.7
			c0,0-0.1,0-0.1,0C4.7-6.2,3.7-5.5,3-4.5c0,0.1,0.1,0.2,0.1,0.3C3.7-4.5,4.5-4.8,5.3-5l0,0.1c0,0.2,0,2.2,0,3.3c0,1.6,0,3.2,0,4.8
			c0,0.1,0,0.2,0,0.2c0.1,0.4,0.4,0.8,0.8,0.9c0.5,0.1,0.9,0,1.2-0.4c0.2-0.2,0.2-0.4,0.2-0.7c0-1.9,0-5.4,0-7.1h0l0-1.1
			c0.8,0.1,1.6,0.4,2.2,0.8c0-0.1,0.1-0.2,0.1-0.3C9.1-5.5,8.1-6.2,6.9-6.4z M6.4-9.5c0.2,0,0.3,0.1,0.3,0.3c0,0.2-0.1,0.3-0.3,0.3
			C6.2-8.9,6.1-9,6.1-9.2C6.1-9.4,6.2-9.5,6.4-9.5z M6.6-4c0,1.1,0,2.3,0,3.4c0,1.1,0,2.3,0,3.4c0,0,0,0,0,0.1
			c0,0.1-0.1,0.1-0.2,0.1c-0.1,0-0.2,0-0.2-0.1c0,0,0,0,0,0c0-2.3,0-4.5,0-6.8c0,0,0,0,0,0c0-0.1,0.1-0.1,0.2-0.1
			C6.5-4.2,6.6-4.2,6.6-4C6.6-4.1,6.6-4.1,6.6-4z"/>
	</g>
</g>
</svg>
