<?xml version="1.0" encoding="utf-8"?>
<!-- Generator: Adobe Illustrator 19.0.0, SVG Export Plug-In . SVG Version: 6.00 Build 0)  -->
<svg version="1.1" id="Capa_1" xmlns="http://www.w3.org/2000/svg" xmlns:xlink="http://www.w3.org/1999/xlink" x="0px" y="0px"
	 viewBox="0 0 16 16" style="enable-background:new 0 0 16 16;" xml:space="preserve">
<style type="text/css">
	.st0{fill:#456B84;}
</style>
<g id="XMLID_653_">
	<path id="XMLID_657_" class="st0" d="M12,2h-2c0-1.1-0.9-2-2-2C6.9,0,6,0.9,6,2H4v2h8V2z M8,3C7.4,3,7,2.6,7,2c0-0.6,0.4-1,1-1
		c0.6,0,1,0.4,1,1C9,2.6,8.6,3,8,3z"/>
	<path id="XMLID_654_" class="st0" d="M13,2v3H3V2H1v14h14V2H13z M7.5,13.9l-0.7-0.7L4,10.3l1.4-1.4L7.5,11l4-4L13,8.4L7.5,13.9z"/>
</g>
</svg>
