<?xml version="1.0" encoding="utf-8"?>
<!-- Generator: Adobe Illustrator 19.0.0, SVG Export Plug-In . SVG Version: 6.00 Build 0)  -->
<svg version="1.1" id="Capa_1" xmlns="http://www.w3.org/2000/svg" xmlns:xlink="http://www.w3.org/1999/xlink" x="0px" y="0px"
	 viewBox="0 0 16 16" style="enable-background:new 0 0 16 16;" xml:space="preserve">
<style type="text/css">
	.st0{fill:#456B84;}
</style>
<g id="XMLID_1455_">
	<path id="XMLID_1475_" class="st0" d="M10.4,0.3V3c1.8,0.9,3.1,2.8,3.1,4.9c0,3-2.5,5.5-5.5,5.5C5,13.5,2.5,11,2.5,8
		c0-2.2,1.3-4,3.1-4.9V0.3C2.4,1.4,0,4.4,0,8c0,4.4,3.6,8,8,8c4.4,0,8-3.6,8-8C16,4.4,13.6,1.4,10.4,0.3z"/>
	<path id="XMLID_1468_" class="st0" d="M8,9.2L8,9.2c-0.7,0-1.3-0.6-1.3-1.3V1.3C6.7,0.6,7.3,0,8,0h0c0.7,0,1.3,0.6,1.3,1.3v6.6
		C9.3,8.6,8.7,9.2,8,9.2z"/>
</g>
</svg>
