<?xml version="1.0" encoding="utf-8"?>
<!-- Generator: Adobe Illustrator 19.0.0, SVG Export Plug-In . SVG Version: 6.00 Build 0)  -->
<svg version="1.1" id="Capa_1" xmlns="http://www.w3.org/2000/svg" xmlns:xlink="http://www.w3.org/1999/xlink" x="0px" y="0px"
	 viewBox="0 0 16 16" style="enable-background:new 0 0 16 16;" xml:space="preserve">
<style type="text/css">
	.st0{fill:#456B84;}
</style>
<g id="XMLID_644_">
	<path id="XMLID_647_" class="st0" d="M15.4,3l-1.9,1.9l-2.1-0.5L11,2.4l1.9-1.9c-0.3-0.1-0.6-0.1-0.9-0.1c-2,0-3.6,1.6-3.6,3.6
		c0,0.7,0.2,1.3,0.5,1.8L5.7,8.8C5.2,8.5,4.6,8.3,3.9,8.3c-2,0-3.6,1.6-3.6,3.6c0,0.3,0.1,0.6,0.1,0.9l1.9-1.9l2.1,0.5l0.4,2.1
		L3,15.4c0.3,0.1,0.6,0.1,0.9,0.1c2,0,3.6-1.6,3.6-3.6c0-0.6-0.2-1.2-0.4-1.6l3.2-3.1c0.5,0.3,1,0.4,1.6,0.4c2,0,3.6-1.6,3.6-3.6
		C15.6,3.6,15.5,3.3,15.4,3z"/>
	<g id="XMLID_645_">
		<path id="XMLID_646_" class="st0" d="M0.6,0.6l0.3-0.3l1.9,1l1,1l0.7,1.2l6.7,6.8c0,0,0.5-0.5,0.8-0.8c0.2-0.2,0.4,0,0.4,0
			s0.1,0.1,0.3,0.3c0.2,0.2,0,1,0,1l0.5,0.5c0,0,2.3,2.3,2.5,2.5c0.2,0.2,0.2,0.8,0,1c-0.2,0.2-0.5,0.5-0.5,0.5s-0.3,0.3-0.5,0.5
			c-0.2,0.2-0.8,0.2-1,0c-0.2-0.2-2.5-2.5-2.5-2.5l-0.5-0.5c0,0-0.8,0.2-1,0c-0.2-0.2-0.3-0.3-0.3-0.3s-0.2-0.2,0-0.4
			c0.2-0.2,0.8-0.7,0.8-0.7L3.5,4.4L2.3,3.7l-1-1l-1-1.9L0.6,0.6z"/>
	</g>
</g>
</svg>
